<svg id="svg" version="1.1" xmlns="http://www.w3.org/2000/svg" xmlns:xlink="http://www.w3.org/1999/xlink" width="400" height="108.63579474342929" viewBox="0, 0, 400,108.63579474342929"><g id="svgg"><path id="path0" d="M339.290 5.006 C 337.076 5.379,334.730 7.525,333.739 10.083 C 333.423 10.900,333.417 11.793,333.417 54.005 C 333.417 100.768,333.360 97.461,334.184 98.833 C 334.267 98.971,334.411 99.263,334.506 99.483 C 334.746 100.042,336.655 101.861,337.345 102.187 C 341.631 104.215,346.411 102.795,348.315 98.928 C 349.170 97.192,349.166 97.276,349.170 78.436 C 349.173 59.115,349.246 57.391,350.167 55.083 C 352.809 48.459,357.464 45.446,365.083 45.429 C 371.901 45.413,375.418 47.802,377.090 53.583 C 378.003 56.742,377.996 56.562,377.998 77.090 C 378.000 93.536,378.034 96.230,378.253 97.090 C 380.337 105.269,391.760 105.137,393.740 96.911 C 394.096 95.434,394.052 57.775,393.691 54.667 C 392.754 46.599,391.356 42.232,388.434 38.255 C 386.344 35.410,381.745 32.000,379.998 32.000 C 379.896 32.000,379.461 31.894,379.031 31.765 C 376.027 30.862,371.294 30.458,368.167 30.839 C 366.635 31.025,363.687 31.644,363.417 31.836 C 363.325 31.901,363.027 32.007,362.755 32.073 C 362.297 32.182,361.253 32.619,359.833 33.295 C 356.796 34.741,352.612 38.115,350.330 40.958 C 349.104 42.486,349.167 43.264,349.167 26.517 C 349.167 10.970,349.155 10.723,348.344 9.048 C 346.799 5.859,343.356 4.322,339.290 5.006 M72.000 10.129 C 68.976 10.460,66.318 12.576,65.305 15.458 C 65.006 16.309,64.995 17.769,64.995 56.578 L 64.995 96.816 65.351 97.866 C 67.218 103.361,74.772 104.975,79.045 100.793 C 81.599 98.293,81.500 99.125,81.500 80.146 C 81.500 65.761,81.526 64.192,81.764 64.101 C 81.909 64.046,88.724 64.000,96.909 64.000 C 114.029 64.000,113.021 64.087,115.250 62.417 C 116.453 61.516,117.064 60.751,117.845 59.167 C 118.317 58.208,118.405 54.641,117.972 53.974 C 117.833 53.759,117.668 53.375,117.606 53.121 C 117.412 52.335,115.311 50.284,114.078 49.676 C 112.423 48.862,111.973 48.840,96.408 48.837 C 85.350 48.834,81.852 48.786,81.700 48.633 C 81.411 48.344,81.411 25.823,81.700 25.533 C 81.853 25.380,86.031 25.333,99.492 25.333 C 118.640 25.333,118.336 25.347,120.167 24.394 C 124.692 22.037,125.695 16.074,122.165 12.511 C 121.121 11.458,119.678 10.645,118.333 10.352 C 117.524 10.176,73.507 9.964,72.000 10.129 M7.094 13.943 C 7.027 14.112,6.569 16.650,6.076 19.583 C 5.582 22.517,5.058 25.554,4.912 26.333 C 4.400 29.055,4.300 30.268,4.389 32.667 C 4.771 42.967,9.846 54.974,18.122 65.155 C 21.408 69.197,25.676 73.436,25.803 72.782 C 25.833 72.629,25.578 72.271,25.220 71.963 C 24.234 71.117,21.335 68.182,20.500 67.186 C 20.087 66.694,19.506 66.037,19.208 65.726 C 18.910 65.415,18.667 65.114,18.667 65.057 C 18.667 65.000,18.565 64.870,18.440 64.768 C 17.914 64.339,14.286 59.264,13.662 58.083 C 13.274 57.349,13.023 56.950,12.890 56.852 C 12.813 56.796,12.575 56.413,12.361 56.000 C 12.147 55.587,11.717 54.800,11.406 54.250 C 11.095 53.700,10.796 53.137,10.741 53.000 C 10.687 52.862,10.573 52.637,10.487 52.500 C 10.401 52.362,10.286 52.137,10.231 52.000 C 10.091 51.650,9.167 49.674,8.893 49.141 C 8.769 48.898,8.667 48.588,8.667 48.453 C 8.667 48.318,8.562 48.121,8.435 48.015 C 8.307 47.909,8.166 47.619,8.120 47.370 C 8.075 47.121,7.873 46.504,7.671 46.000 C 7.469 45.496,7.243 44.858,7.167 44.583 C 7.031 44.090,6.845 43.516,6.479 42.458 C 6.376 42.160,6.258 41.654,6.216 41.333 C 6.175 41.012,6.034 40.514,5.904 40.225 C 5.773 39.936,5.667 39.435,5.667 39.111 C 5.667 38.787,5.577 38.311,5.468 38.053 C 5.359 37.794,5.221 36.908,5.163 36.083 C 5.105 35.258,4.955 34.043,4.829 33.382 C 4.641 32.390,4.638 31.898,4.812 30.549 C 4.928 29.651,5.076 28.392,5.141 27.750 C 5.205 27.108,5.350 26.420,5.463 26.219 C 5.575 26.019,5.667 25.473,5.667 25.006 C 5.667 24.538,5.779 23.887,5.917 23.558 C 6.054 23.229,6.167 22.554,6.167 22.058 C 6.167 21.562,6.279 20.887,6.417 20.558 C 6.554 20.229,6.667 19.554,6.667 19.058 C 6.667 18.562,6.779 17.887,6.917 17.558 C 7.054 17.229,7.167 16.600,7.167 16.160 C 7.167 14.441,7.478 14.435,8.613 16.129 C 9.958 18.135,14.610 24.933,15.939 26.833 C 16.420 27.521,17.528 29.133,18.400 30.417 C 19.273 31.700,20.577 33.612,21.299 34.667 C 26.060 41.623,25.568 41.171,26.330 39.292 C 28.337 34.338,31.621 29.049,34.841 25.583 C 36.011 24.325,36.010 24.316,34.536 23.194 C 31.647 20.995,28.124 18.927,25.417 17.840 C 23.031 16.883,22.610 16.774,17.333 15.741 C 16.096 15.499,14.558 15.190,13.917 15.054 C 13.275 14.919,12.225 14.703,11.583 14.575 C 10.520 14.364,8.750 13.986,7.649 13.736 C 7.323 13.662,7.184 13.714,7.094 13.943 M170.911 30.915 C 167.971 31.271,164.250 32.340,162.446 33.348 C 162.279 33.442,161.829 33.679,161.446 33.875 C 159.098 35.079,155.399 38.382,154.167 40.373 C 153.434 41.557,153.276 41.510,153.146 40.070 C 152.292 30.614,140.090 28.871,137.482 37.833 C 136.981 39.552,136.991 95.637,137.492 97.389 C 139.684 105.055,150.698 105.019,152.815 97.338 C 153.033 96.548,153.083 93.760,153.165 77.833 C 153.270 57.477,153.213 58.630,154.272 55.500 C 157.185 46.890,164.490 42.691,171.667 45.500 C 177.535 47.798,182.448 45.736,183.342 40.601 C 183.642 38.881,183.482 36.778,182.967 35.667 C 182.104 33.804,180.605 32.501,178.000 31.351 C 176.572 30.721,173.889 30.556,170.911 30.915 M220.250 30.754 C 220.158 30.788,219.287 30.893,218.313 30.986 C 216.568 31.154,216.142 31.235,213.667 31.869 C 207.322 33.494,200.688 37.768,196.534 42.908 C 196.011 43.554,195.541 44.121,195.489 44.167 C 194.547 44.990,191.535 50.516,190.493 53.333 C 187.547 61.296,187.221 72.003,189.673 80.250 C 190.654 83.551,193.443 89.266,194.513 90.167 C 194.567 90.212,194.680 90.372,194.764 90.522 C 196.090 92.888,201.770 97.898,205.252 99.775 C 205.617 99.972,206.189 100.285,206.522 100.469 C 207.979 101.278,211.280 102.534,213.407 103.088 C 221.790 105.271,231.057 104.868,238.500 101.995 C 239.004 101.801,239.604 101.582,239.833 101.510 C 240.327 101.353,243.464 99.840,244.419 99.297 C 251.067 95.520,253.005 90.320,249.285 86.242 C 246.808 83.527,243.013 83.348,239.039 85.761 C 238.369 86.167,237.790 86.500,237.752 86.500 C 237.714 86.500,237.347 86.727,236.936 87.004 C 232.919 89.715,224.468 90.750,218.750 89.231 C 215.379 88.335,212.265 86.586,209.776 84.188 C 208.141 82.614,205.525 78.903,205.234 77.747 C 205.177 77.518,205.063 77.289,204.982 77.239 C 204.900 77.188,204.833 77.032,204.833 76.890 C 204.833 76.749,204.728 76.397,204.600 76.109 C 204.369 75.588,204.049 74.485,203.887 73.648 C 203.758 72.985,203.037 73.005,227.034 73.002 L 249.485 73.000 250.564 72.608 C 254.065 71.337,255.836 68.816,255.834 65.106 C 255.833 62.815,255.181 58.514,254.567 56.744 C 254.438 56.375,254.333 55.946,254.333 55.792 C 254.333 55.638,254.228 55.265,254.100 54.964 C 253.972 54.663,253.740 54.079,253.585 53.667 C 253.430 53.254,253.208 52.692,253.092 52.417 C 252.827 51.790,251.158 48.437,250.867 47.947 C 250.167 46.770,248.886 44.892,248.178 44.005 C 247.851 43.595,247.434 43.070,247.251 42.838 C 244.303 39.097,239.123 35.344,233.417 32.814 C 232.819 32.549,229.426 31.500,229.168 31.500 C 229.030 31.501,228.429 31.393,227.833 31.262 C 225.812 30.817,220.961 30.492,220.250 30.754 M290.583 30.754 C 290.492 30.788,289.620 30.893,288.646 30.986 C 284.218 31.412,278.171 33.614,275.250 35.864 C 271.097 39.064,269.261 41.317,267.759 45.061 C 266.079 49.249,266.405 56.119,268.495 60.567 C 270.328 64.467,276.008 69.216,280.427 70.542 C 280.604 70.595,281.162 70.801,281.667 71.000 C 282.171 71.199,282.808 71.424,283.083 71.500 C 283.358 71.575,283.846 71.730,284.167 71.842 C 284.487 71.955,285.012 72.139,285.333 72.252 C 285.654 72.364,286.329 72.579,286.833 72.729 C 287.337 72.880,288.462 73.218,289.333 73.482 C 290.204 73.745,291.779 74.202,292.833 74.497 C 293.887 74.792,294.938 75.111,295.167 75.205 C 295.396 75.299,295.808 75.435,296.083 75.507 C 298.011 76.012,300.788 77.244,302.377 78.298 C 307.813 81.908,306.322 89.673,299.917 91.113 C 291.598 92.983,283.938 90.755,277.435 84.574 C 274.110 81.413,272.270 80.677,269.523 81.408 C 265.041 82.601,262.791 86.606,264.322 90.664 C 264.511 91.167,264.667 91.589,264.667 91.603 C 264.667 92.128,268.843 96.396,270.750 97.820 C 272.792 99.344,276.644 101.500,277.325 101.500 C 277.415 101.500,277.735 101.603,278.036 101.730 C 278.337 101.856,279.033 102.090,279.583 102.250 C 280.133 102.409,280.921 102.640,281.333 102.763 C 303.138 109.264,323.216 96.706,319.594 78.833 C 318.211 72.005,314.545 67.915,306.583 64.320 C 305.440 63.804,301.591 62.491,299.333 61.847 C 298.646 61.651,297.746 61.388,297.333 61.263 C 296.921 61.137,296.133 60.912,295.583 60.762 C 295.033 60.612,294.246 60.388,293.833 60.264 C 293.421 60.141,292.633 59.905,292.083 59.741 C 284.524 57.480,281.833 55.164,281.833 50.917 C 281.833 46.892,284.259 44.623,289.321 43.911 C 295.860 42.991,302.511 45.151,306.247 49.406 C 309.620 53.248,315.759 52.462,317.912 47.911 C 319.624 44.293,316.264 38.560,310.583 35.404 C 306.674 33.232,304.289 32.380,299.167 31.322 C 297.131 30.902,291.240 30.512,290.583 30.754 M224.750 45.490 C 231.881 46.313,239.163 53.288,238.801 58.949 L 238.750 59.750 221.476 59.792 C 207.110 59.828,204.188 59.797,204.117 59.610 C 203.885 59.006,204.686 56.471,205.889 54.000 C 208.985 47.642,215.995 44.479,224.750 45.490 " stroke="none" fill="#43d859" fill-rule="evenodd"></path>
<path id="path1" d="M7.268 15.097 C 7.212 15.242,7.167 15.720,7.167 16.160 C 7.167 16.600,7.054 17.229,6.917 17.558 C 6.779 17.887,6.667 18.562,6.667 19.058 C 6.667 19.554,6.554 20.229,6.417 20.558 C 6.279 20.887,6.167 21.562,6.167 22.058 C 6.167 22.554,6.054 23.229,5.917 23.558 C 5.779 23.887,5.667 24.538,5.667 25.006 C 5.667 25.473,5.575 26.019,5.463 26.219 C 5.350 26.420,5.205 27.108,5.141 27.750 C 5.076 28.392,4.928 29.651,4.812 30.549 C 4.638 31.898,4.641 32.390,4.829 33.382 C 4.955 34.043,5.105 35.258,5.163 36.083 C 5.221 36.908,5.359 37.794,5.468 38.053 C 5.577 38.311,5.667 38.787,5.667 39.111 C 5.667 39.435,5.773 39.936,5.904 40.225 C 6.034 40.514,6.175 41.012,6.216 41.333 C 6.258 41.654,6.376 42.160,6.479 42.458 C 6.845 43.516,7.031 44.090,7.167 44.583 C 7.243 44.858,7.469 45.496,7.671 46.000 C 7.873 46.504,8.075 47.121,8.120 47.370 C 8.166 47.619,8.307 47.909,8.435 48.015 C 8.562 48.121,8.667 48.318,8.667 48.453 C 8.667 48.588,8.769 48.898,8.893 49.141 C 9.018 49.384,9.363 50.108,9.659 50.750 C 9.955 51.392,10.266 52.029,10.350 52.167 C 10.434 52.304,10.532 52.492,10.568 52.583 C 10.785 53.129,10.894 53.344,11.406 54.250 C 11.717 54.800,12.147 55.587,12.361 56.000 C 12.575 56.413,12.813 56.796,12.890 56.852 C 13.023 56.950,13.274 57.349,13.662 58.083 C 14.286 59.264,17.914 64.339,18.440 64.768 C 18.565 64.870,18.667 65.000,18.667 65.057 C 18.667 65.114,18.910 65.415,19.208 65.726 C 19.506 66.037,20.086 66.694,20.496 67.187 C 21.369 68.236,25.484 72.333,25.666 72.333 C 25.734 72.333,25.611 71.827,25.394 71.208 C 22.270 62.322,22.271 51.057,25.398 41.885 L 25.806 40.687 25.440 40.447 C 25.238 40.315,24.572 39.467,23.960 38.562 C 23.348 37.657,22.204 35.979,21.417 34.833 C 20.631 33.688,19.273 31.700,18.401 30.417 C 17.528 29.133,16.420 27.521,15.939 26.833 C 14.610 24.933,9.958 18.135,8.613 16.129 C 7.745 14.833,7.455 14.610,7.268 15.097 " stroke="none" fill="#3eca45" fill-rule="evenodd"></path>
<path id="path2" d="M65.167 10.529 C 58.535 11.210,52.900 12.986,46.667 16.358 C 45.116 17.197,40.919 20.112,39.997 20.990 C 39.847 21.133,39.505 21.430,39.237 21.649 C 38.969 21.869,38.223 22.544,37.579 23.149 C 36.936 23.755,36.145 24.475,35.823 24.750 C 31.262 28.643,25.639 39.205,24.015 46.931 C 22.207 55.535,23.125 66.996,26.090 72.833 C 26.393 73.429,27.278 75.229,28.057 76.833 C 35.292 91.730,50.376 101.786,66.708 102.601 C 69.283 102.729,69.558 102.597,68.310 101.833 C 67.588 101.392,66.228 99.982,65.981 99.419 C 65.900 99.234,65.765 98.971,65.681 98.833 C 65.447 98.451,65.000 97.386,65.000 97.210 C 65.000 97.124,64.456 96.961,63.792 96.847 C 60.263 96.246,56.643 95.281,54.417 94.349 C 51.587 93.165,46.357 90.214,45.411 89.268 C 45.263 89.121,45.091 89.000,45.028 89.000 C 44.965 89.000,44.726 88.831,44.497 88.625 C 44.268 88.419,43.706 87.950,43.249 87.583 C 31.812 78.417,26.407 61.830,29.999 46.917 C 33.023 34.359,42.474 23.454,54.333 18.840 C 55.112 18.537,55.900 18.228,56.083 18.152 C 56.267 18.077,56.679 17.943,57.000 17.854 C 57.321 17.765,58.108 17.547,58.750 17.368 C 60.532 16.873,62.123 16.531,63.484 16.350 C 64.857 16.168,64.994 16.072,65.407 15.003 C 65.956 13.579,67.968 11.337,69.032 10.965 C 70.570 10.426,68.471 10.189,65.167 10.529 " stroke="none" fill="#feac24" fill-rule="evenodd"></path>
<path id="path3" d="M339.667 4.660 C 339.529 4.753,339.235 4.829,339.013 4.831 C 336.856 4.844,333.695 8.309,333.234 11.167 C 333.041 12.363,333.039 95.623,333.232 96.833 C 333.313 97.337,333.472 97.938,333.587 98.167 C 333.701 98.396,333.935 98.872,334.106 99.226 C 334.698 100.448,337.127 102.667,337.874 102.667 C 338.013 102.667,338.212 102.770,338.316 102.896 C 338.671 103.324,341.300 103.504,343.083 103.222 C 343.980 103.081,344.288 102.970,345.167 102.474 C 345.304 102.396,345.585 102.260,345.792 102.170 C 345.998 102.081,346.167 101.931,346.167 101.837 C 346.167 101.744,346.245 101.667,346.341 101.667 C 346.527 101.667,347.103 101.089,347.713 100.290 C 347.917 100.023,348.163 99.717,348.260 99.611 C 348.439 99.414,348.978 98.073,349.315 96.988 C 349.445 96.569,349.504 90.911,349.514 77.822 C 349.522 67.607,349.592 58.837,349.669 58.333 C 349.909 56.778,350.185 55.591,350.346 55.425 C 350.431 55.338,350.500 55.157,350.500 55.024 C 350.500 54.734,351.695 52.274,351.875 52.194 C 351.944 52.164,352.000 52.064,352.000 51.972 C 352.000 51.402,354.972 48.444,355.875 48.116 C 356.035 48.058,356.167 47.933,356.167 47.839 C 356.167 47.744,356.307 47.667,356.480 47.667 C 356.652 47.667,356.886 47.554,357.000 47.417 C 357.114 47.279,357.339 47.167,357.500 47.167 C 357.661 47.167,357.886 47.054,358.000 46.917 C 358.114 46.779,358.355 46.667,358.536 46.667 C 358.717 46.667,359.064 46.558,359.308 46.426 C 359.551 46.294,360.105 46.139,360.538 46.083 C 360.971 46.027,361.369 45.910,361.423 45.824 C 361.596 45.543,368.384 45.626,368.939 45.916 C 369.202 46.053,369.617 46.165,369.861 46.166 C 370.251 46.167,370.800 46.378,371.667 46.862 C 371.804 46.939,372.029 47.052,372.167 47.112 C 372.729 47.360,374.833 49.188,374.833 49.429 C 374.833 49.560,375.568 50.577,375.708 50.639 C 375.777 50.669,375.833 50.829,375.833 50.993 C 375.833 51.158,375.946 51.386,376.083 51.500 C 376.221 51.614,376.333 51.871,376.333 52.072 C 376.333 52.272,376.443 52.582,376.578 52.760 C 376.713 52.938,376.826 53.308,376.829 53.583 C 376.833 53.858,376.947 54.298,377.084 54.561 C 377.221 54.823,377.337 55.348,377.341 55.727 C 377.345 56.106,377.434 56.754,377.539 57.167 C 377.674 57.698,377.757 63.686,377.823 77.736 C 377.897 93.377,377.961 97.570,378.125 97.625 C 378.240 97.663,378.333 97.904,378.333 98.160 C 378.333 98.416,378.446 98.719,378.583 98.833 C 378.721 98.947,378.833 99.110,378.833 99.194 C 378.833 99.671,381.158 102.167,381.602 102.167 C 381.729 102.167,381.833 102.240,381.833 102.330 C 381.833 102.420,382.040 102.543,382.292 102.603 C 382.544 102.663,382.850 102.792,382.973 102.889 C 383.505 103.310,386.056 103.487,387.750 103.221 C 388.647 103.080,388.954 102.970,389.833 102.474 C 389.971 102.396,390.238 102.265,390.427 102.182 C 390.875 101.986,392.344 100.556,392.754 99.917 C 393.312 99.047,393.667 98.342,393.667 98.103 C 393.667 97.976,393.779 97.657,393.916 97.394 C 394.213 96.824,394.272 56.913,393.978 55.083 C 393.890 54.533,393.759 53.371,393.687 52.500 C 393.616 51.629,393.469 50.753,393.362 50.553 C 393.254 50.352,393.166 49.827,393.166 49.386 C 393.165 48.945,393.053 48.369,392.916 48.106 C 392.779 47.843,392.667 47.351,392.667 47.013 C 392.667 46.674,392.557 46.251,392.422 46.074 C 392.287 45.896,392.175 45.521,392.172 45.240 C 392.169 44.960,392.057 44.585,391.922 44.407 C 391.787 44.229,391.675 43.945,391.672 43.776 C 391.669 43.607,391.563 43.269,391.437 43.026 C 391.311 42.782,390.923 41.983,390.574 41.250 C 390.225 40.517,389.878 39.892,389.803 39.861 C 389.728 39.831,389.667 39.711,389.667 39.595 C 389.667 39.479,389.535 39.226,389.375 39.033 C 388.978 38.556,388.632 38.098,388.333 37.653 C 387.487 36.394,383.997 33.333,383.408 33.333 C 383.275 33.333,383.167 33.276,383.167 33.206 C 383.167 33.097,382.445 32.733,381.083 32.154 C 380.184 31.771,378.715 31.333,378.331 31.333 C 378.094 31.333,377.826 31.259,377.736 31.169 C 376.989 30.422,366.242 30.413,364.850 31.158 C 364.669 31.254,364.348 31.334,364.136 31.334 C 363.924 31.335,363.535 31.447,363.273 31.584 C 363.010 31.721,362.721 31.833,362.631 31.833 C 362.216 31.833,357.833 33.990,357.833 34.194 C 357.833 34.271,357.734 34.333,357.613 34.333 C 357.491 34.333,357.023 34.594,356.571 34.913 C 356.119 35.233,355.608 35.589,355.434 35.705 C 355.260 35.821,354.901 36.123,354.636 36.375 C 354.372 36.627,354.124 36.833,354.085 36.833 C 353.971 36.833,352.338 38.359,351.600 39.154 C 351.224 39.560,350.785 40.028,350.625 40.196 C 350.465 40.363,350.333 40.537,350.333 40.583 C 350.333 40.691,349.692 41.333,349.585 41.333 C 349.540 41.333,349.482 34.565,349.455 26.292 C 349.419 14.984,349.356 11.064,349.201 10.500 C 348.460 7.807,345.982 5.325,343.500 4.790 C 342.383 4.549,339.955 4.467,339.667 4.660 M343.146 4.996 C 345.944 5.527,348.465 8.100,348.995 10.967 C 349.104 11.558,349.167 17.206,349.167 26.517 C 349.167 43.264,349.104 42.486,350.330 40.958 C 352.612 38.115,356.796 34.741,359.833 33.295 C 361.253 32.619,362.297 32.182,362.755 32.073 C 363.027 32.007,363.325 31.901,363.417 31.836 C 363.687 31.644,366.635 31.025,368.167 30.839 C 371.294 30.458,376.027 30.862,379.031 31.765 C 379.461 31.894,379.896 32.000,379.998 32.000 C 380.413 32.000,383.791 33.720,384.652 34.371 C 387.792 36.741,390.328 40.405,391.658 44.493 C 392.565 47.277,393.206 50.486,393.691 54.667 C 394.052 57.775,394.096 95.434,393.740 96.911 C 391.760 105.137,380.337 105.269,378.253 97.090 C 378.034 96.230,378.000 93.536,377.998 77.090 C 377.996 56.562,378.003 56.742,377.090 53.583 C 375.418 47.802,371.901 45.413,365.083 45.429 C 357.464 45.446,352.809 48.459,350.167 55.083 C 349.246 57.391,349.173 59.115,349.170 78.436 C 349.166 97.276,349.170 97.192,348.315 98.928 C 346.411 102.795,341.631 104.215,337.345 102.187 C 336.655 101.861,334.746 100.042,334.506 99.483 C 334.411 99.263,334.267 98.971,334.184 98.833 C 333.360 97.461,333.417 100.768,333.417 54.005 C 333.417 11.793,333.423 10.900,333.739 10.083 C 335.261 6.152,338.891 4.189,343.146 4.996 M64.000 10.009 C 63.587 10.082,62.624 10.224,61.859 10.324 C 61.094 10.424,60.330 10.579,60.161 10.669 C 59.993 10.760,59.671 10.833,59.447 10.833 C 59.067 10.833,58.379 11.007,56.500 11.575 C 56.087 11.700,55.507 11.853,55.210 11.914 C 54.913 11.975,54.628 12.095,54.575 12.179 C 54.523 12.264,54.337 12.333,54.162 12.333 C 53.853 12.333,53.065 12.628,52.111 13.100 C 51.852 13.228,51.563 13.333,51.469 13.333 C 50.537 13.333,43.744 17.227,41.168 19.238 C 39.631 20.438,39.459 20.583,37.654 22.208 C 35.749 23.925,35.990 23.873,34.637 22.849 C 31.398 20.398,28.244 18.615,24.583 17.167 C 23.176 16.611,21.410 16.150,19.500 15.841 C 18.465 15.674,17.208 15.427,14.833 14.922 C 14.237 14.796,13.150 14.569,12.417 14.419 C 11.683 14.269,10.558 14.035,9.917 13.899 C 7.917 13.475,7.261 13.372,7.059 13.449 C 6.656 13.604,6.598 13.894,4.900 24.250 C 4.780 24.983,4.529 26.408,4.343 27.417 C 3.369 32.691,4.333 39.593,7.068 46.917 C 8.118 49.729,11.123 55.861,12.186 57.359 C 12.359 57.602,12.500 57.849,12.500 57.908 C 12.500 57.966,12.578 58.105,12.673 58.215 C 12.768 58.326,13.234 59.017,13.708 59.750 C 14.182 60.483,14.629 61.158,14.701 61.250 C 14.773 61.342,15.443 62.242,16.190 63.250 C 16.937 64.258,17.594 65.121,17.650 65.167 C 17.706 65.212,18.195 65.813,18.738 66.500 C 19.281 67.188,21.102 69.119,22.786 70.791 C 25.608 73.596,25.893 73.933,26.438 75.124 C 27.438 77.312,28.078 78.581,28.208 78.639 C 28.277 78.669,28.333 78.772,28.333 78.866 C 28.333 79.058,29.715 81.393,30.730 82.917 C 32.670 85.828,35.730 89.266,38.571 91.728 C 39.114 92.198,39.695 92.715,39.863 92.875 C 40.030 93.035,40.200 93.167,40.240 93.167 C 40.280 93.167,40.559 93.392,40.860 93.667 C 41.161 93.942,41.495 94.167,41.603 94.167 C 41.710 94.167,41.841 94.279,41.894 94.417 C 41.946 94.554,42.098 94.667,42.231 94.667 C 42.364 94.667,42.497 94.723,42.528 94.792 C 42.609 94.974,43.626 95.667,43.813 95.667 C 43.900 95.667,43.997 95.727,44.028 95.801 C 44.058 95.875,44.758 96.330,45.583 96.813 C 46.408 97.295,47.196 97.756,47.333 97.837 C 47.707 98.059,50.010 99.184,50.583 99.424 C 51.124 99.651,52.002 100.025,52.667 100.311 C 53.562 100.698,56.602 101.664,56.925 101.665 C 57.113 101.666,57.338 101.738,57.425 101.825 C 57.512 101.912,57.996 102.058,58.500 102.150 C 59.979 102.420,61.198 102.662,61.992 102.845 C 65.166 103.578,76.057 103.579,76.301 102.847 C 76.334 102.748,76.465 102.667,76.592 102.667 C 76.923 102.667,78.167 101.995,78.167 101.817 C 78.167 101.734,78.255 101.667,78.362 101.667 C 78.469 101.667,78.938 101.258,79.404 100.758 C 80.534 99.546,80.580 99.485,80.887 98.823 C 81.692 97.082,81.662 97.795,81.667 80.833 C 81.669 72.079,81.716 64.748,81.772 64.542 L 81.872 64.167 97.238 64.167 C 110.490 64.167,112.647 64.133,112.926 63.922 C 113.104 63.787,113.410 63.675,113.605 63.672 C 113.800 63.669,114.053 63.554,114.167 63.417 C 114.281 63.279,114.448 63.167,114.538 63.167 C 115.159 63.167,117.208 61.041,117.911 59.667 C 118.828 57.876,118.758 54.827,117.757 52.904 C 117.230 51.893,115.904 50.333,115.570 50.333 C 115.440 50.333,115.333 50.256,115.333 50.163 C 115.333 50.069,115.165 49.919,114.958 49.830 C 114.752 49.740,114.471 49.604,114.333 49.526 C 112.680 48.593,112.965 48.609,96.750 48.509 L 81.750 48.417 81.707 37.045 L 81.664 25.672 99.824 25.628 C 114.081 25.593,118.028 25.539,118.192 25.375 C 118.306 25.260,118.638 25.167,118.930 25.167 C 119.221 25.167,119.553 25.054,119.667 24.917 C 119.781 24.779,119.983 24.667,120.116 24.667 C 120.831 24.667,123.833 21.634,123.833 20.912 C 123.833 20.792,123.916 20.667,124.016 20.633 C 124.117 20.600,124.240 20.217,124.288 19.782 C 124.337 19.348,124.443 18.952,124.522 18.903 C 124.724 18.778,124.704 16.876,124.500 16.750 C 124.408 16.693,124.333 16.367,124.333 16.024 C 124.333 14.720,122.663 12.265,121.083 11.247 C 120.159 10.652,119.503 10.333,119.201 10.333 C 119.035 10.333,118.806 10.240,118.692 10.125 C 118.451 9.884,65.338 9.771,64.000 10.009 M118.333 10.352 C 120.252 10.770,122.639 12.508,123.357 14.011 C 124.184 15.741,124.218 15.887,124.224 17.750 C 124.234 20.626,122.757 23.045,120.167 24.394 C 118.336 25.347,118.640 25.333,99.492 25.333 C 86.031 25.333,81.853 25.380,81.700 25.533 C 81.411 25.823,81.411 48.344,81.700 48.633 C 81.852 48.786,85.350 48.834,96.408 48.837 C 111.973 48.840,112.423 48.862,114.078 49.676 C 115.311 50.284,117.412 52.335,117.606 53.121 C 117.668 53.375,117.833 53.759,117.972 53.974 C 118.405 54.641,118.317 58.208,117.845 59.167 C 117.064 60.751,116.453 61.516,115.250 62.417 C 113.021 64.087,114.029 64.000,96.909 64.000 C 88.724 64.000,81.909 64.046,81.764 64.101 C 81.526 64.192,81.500 65.761,81.500 80.146 C 81.500 95.086,81.481 96.160,81.195 97.191 C 80.240 100.633,77.253 102.973,73.728 103.041 C 51.838 103.458,35.577 93.709,26.951 74.993 C 26.293 73.565,26.108 73.316,25.136 72.542 C 18.305 67.107,9.959 54.589,6.772 45.000 C 4.402 37.868,3.827 32.104,4.912 26.333 C 5.058 25.554,5.582 22.517,6.076 19.583 C 7.114 13.414,7.063 13.603,7.649 13.736 C 8.750 13.986,10.520 14.364,11.583 14.575 C 12.225 14.703,13.275 14.919,13.917 15.054 C 14.558 15.190,16.096 15.499,17.333 15.741 C 22.610 16.774,23.031 16.883,25.417 17.840 C 28.120 18.925,31.647 20.995,34.524 23.185 C 36.094 24.380,36.019 24.379,37.251 23.205 C 37.802 22.680,38.739 21.837,39.334 21.333 C 39.930 20.829,40.454 20.374,40.500 20.322 C 40.566 20.248,41.985 19.183,43.092 18.378 C 43.311 18.219,43.484 18.112,45.750 16.729 C 50.006 14.133,55.650 11.891,59.583 11.234 C 59.858 11.188,60.571 11.045,61.167 10.916 C 64.860 10.118,66.702 10.075,94.917 10.118 C 111.652 10.144,117.652 10.203,118.333 10.352 M63.583 16.609 C 61.660 16.834,56.652 18.148,55.083 18.838 C 54.900 18.919,54.262 19.183,53.667 19.426 C 30.666 28.782,22.000 58.131,36.053 79.083 C 42.344 88.464,54.079 95.725,64.250 96.531 L 64.917 96.583 64.963 94.550 L 65.010 92.516 64.380 92.354 C 64.034 92.265,62.981 92.038,62.041 91.849 C 58.622 91.164,57.800 89.715,59.094 86.654 C 59.845 84.877,59.726 85.160,61.327 81.333 C 62.074 79.546,62.751 77.933,62.830 77.750 C 63.407 76.416,64.663 73.314,64.815 72.850 C 65.113 71.939,65.061 62.490,64.760 62.886 C 64.572 63.134,63.854 64.772,61.826 69.583 C 61.748 69.767,60.998 71.529,60.158 73.500 C 59.318 75.471,58.571 77.271,58.497 77.500 C 58.071 78.818,54.610 86.623,54.309 86.943 C 53.251 88.069,51.735 88.051,49.943 86.891 C 43.698 82.851,38.237 76.204,35.915 69.814 C 33.809 64.019,34.259 63.044,39.333 62.423 C 40.571 62.271,42.108 62.072,42.750 61.981 C 43.392 61.890,44.854 61.702,46.000 61.563 C 47.146 61.424,48.946 61.201,50.000 61.069 C 51.054 60.937,52.479 60.758,53.167 60.673 C 53.854 60.587,55.617 60.361,57.083 60.169 C 63.321 59.355,63.193 59.351,64.278 60.436 L 65.000 61.158 65.000 54.279 L 65.000 47.400 64.542 46.703 C 64.290 46.320,62.498 43.924,60.560 41.378 C 49.502 26.850,50.129 27.873,51.103 25.967 C 51.880 24.446,58.215 21.817,63.045 21.011 C 65.117 20.665,65.000 20.815,65.000 18.504 L 65.000 16.500 64.542 16.525 C 64.290 16.539,63.858 16.576,63.583 16.609 M47.242 30.927 C 47.644 31.190,49.406 33.455,57.087 43.583 C 58.268 45.142,60.122 47.569,61.206 48.977 C 63.607 52.095,63.727 52.313,63.626 53.366 C 63.496 54.718,62.654 55.384,60.833 55.575 C 60.237 55.637,58.925 55.796,57.917 55.927 C 54.507 56.371,52.258 56.659,50.167 56.921 C 49.021 57.064,47.258 57.287,46.250 57.415 C 45.242 57.544,43.517 57.764,42.417 57.904 C 41.317 58.043,39.578 58.272,38.553 58.412 C 34.485 58.968,33.500 58.287,33.500 54.921 C 33.500 47.011,38.203 36.194,43.815 31.196 C 44.678 30.427,46.287 30.301,47.242 30.927 M170.917 30.663 C 170.733 30.744,170.208 30.818,169.750 30.829 C 169.292 30.839,168.617 30.956,168.250 31.088 C 167.883 31.220,167.433 31.329,167.250 31.330 C 166.853 31.332,165.440 31.772,164.778 32.100 C 164.519 32.228,164.239 32.333,164.157 32.333 C 163.696 32.333,159.828 34.386,159.694 34.702 C 159.664 34.774,159.530 34.833,159.398 34.833 C 159.265 34.833,159.113 34.946,159.060 35.083 C 159.008 35.221,158.860 35.333,158.732 35.333 C 158.371 35.333,154.791 38.967,154.066 40.071 L 153.417 41.058 153.331 39.536 C 153.282 38.658,153.159 37.925,153.040 37.806 C 152.926 37.693,152.833 37.399,152.833 37.154 C 152.833 36.908,152.721 36.614,152.583 36.500 C 152.446 36.386,152.333 36.168,152.333 36.017 C 152.333 35.865,152.108 35.495,151.833 35.194 C 151.558 34.892,151.333 34.613,151.333 34.573 C 151.333 34.194,148.668 32.333,148.125 32.333 C 147.993 32.333,147.643 32.213,147.349 32.066 C 146.727 31.756,143.168 31.789,142.583 32.110 C 142.400 32.211,141.881 32.464,141.430 32.673 C 139.881 33.389,138.556 34.714,137.839 36.263 C 137.631 36.714,137.375 37.233,137.272 37.417 C 136.945 37.994,136.922 96.893,137.248 97.546 C 137.387 97.824,137.500 98.172,137.500 98.319 C 137.500 99.075,140.122 102.167,140.763 102.167 C 140.893 102.167,141.000 102.240,141.000 102.330 C 141.000 102.420,141.206 102.543,141.458 102.603 C 141.710 102.663,142.017 102.792,142.139 102.889 C 142.672 103.310,145.223 103.487,146.917 103.221 C 147.813 103.080,148.121 102.970,149.000 102.474 C 149.137 102.396,149.405 102.265,149.595 102.182 C 150.091 101.965,151.833 100.197,151.833 99.909 C 151.833 99.776,151.902 99.667,151.985 99.667 C 152.169 99.667,152.833 98.334,152.833 97.966 C 152.833 97.823,152.945 97.490,153.082 97.227 C 153.299 96.813,153.332 94.370,153.334 78.583 C 153.337 62.977,153.372 60.301,153.585 59.599 C 153.722 59.149,153.836 58.474,153.839 58.099 C 153.842 57.723,153.952 57.229,154.083 57.000 C 154.214 56.771,154.327 56.358,154.333 56.083 C 154.339 55.808,154.454 55.438,154.589 55.260 C 154.723 55.082,154.833 54.772,154.833 54.572 C 154.833 54.371,154.946 54.114,155.083 54.000 C 155.221 53.886,155.333 53.713,155.333 53.616 C 155.333 53.086,157.131 50.185,157.956 49.383 C 158.163 49.181,158.333 48.975,158.333 48.925 C 158.333 48.766,158.992 48.167,159.167 48.167 C 159.258 48.167,159.333 48.108,159.333 48.036 C 159.333 47.876,160.931 46.667,161.142 46.667 C 161.225 46.667,161.386 46.554,161.500 46.417 C 161.614 46.279,161.839 46.167,162.000 46.167 C 162.161 46.167,162.386 46.054,162.500 45.917 C 162.614 45.779,162.853 45.667,163.031 45.667 C 163.209 45.667,163.519 45.575,163.719 45.462 C 164.837 44.833,169.537 44.812,170.692 45.430 C 170.936 45.560,171.273 45.669,171.442 45.672 C 171.612 45.675,171.896 45.787,172.074 45.922 C 172.251 46.057,172.562 46.167,172.763 46.167 C 172.964 46.167,173.343 46.279,173.606 46.416 C 174.278 46.766,177.889 46.766,178.561 46.416 C 178.823 46.279,179.137 46.167,179.257 46.167 C 179.378 46.167,179.579 46.064,179.704 45.939 C 179.830 45.813,180.108 45.655,180.323 45.587 C 180.843 45.422,182.833 43.388,182.833 43.022 C 182.833 42.863,182.913 42.654,183.009 42.557 C 183.994 41.573,184.021 36.508,183.049 35.320 C 182.930 35.175,182.833 34.970,182.833 34.864 C 182.833 34.549,180.189 32.012,179.744 31.900 C 179.518 31.844,179.333 31.730,179.333 31.649 C 179.333 31.567,179.240 31.500,179.125 31.499 C 179.010 31.498,178.692 31.379,178.417 31.235 C 177.354 30.674,171.841 30.254,170.917 30.663 M218.792 30.596 C 218.729 30.660,218.004 30.773,217.180 30.849 C 216.356 30.925,215.547 31.062,215.383 31.152 C 215.218 31.242,214.729 31.362,214.296 31.418 C 213.862 31.474,213.464 31.590,213.411 31.676 C 213.357 31.763,213.112 31.834,212.865 31.834 C 212.618 31.835,212.202 31.947,211.939 32.084 C 211.677 32.221,211.351 32.333,211.215 32.333 C 211.079 32.333,210.769 32.434,210.526 32.558 C 210.282 32.682,209.821 32.896,209.500 33.034 C 204.283 35.286,198.874 39.262,196.453 42.625 C 196.173 43.015,195.881 43.333,195.805 43.333 C 195.729 43.333,195.667 43.404,195.667 43.490 C 195.667 43.576,195.442 43.892,195.167 44.194 C 194.892 44.495,194.667 44.807,194.667 44.888 C 194.667 44.969,194.454 45.309,194.194 45.643 C 193.935 45.977,193.671 46.362,193.609 46.500 C 193.547 46.637,193.348 46.975,193.167 47.250 C 192.986 47.525,192.762 47.900,192.670 48.083 C 192.577 48.267,192.414 48.567,192.307 48.750 C 190.669 51.575,189.193 55.756,188.659 59.083 C 188.570 59.633,188.424 60.301,188.332 60.567 C 188.241 60.832,188.165 61.470,188.163 61.983 C 188.162 62.497,188.052 63.667,187.919 64.583 C 187.609 66.724,187.607 70.126,187.915 72.250 C 188.047 73.167,188.158 74.263,188.161 74.687 C 188.164 75.111,188.279 75.777,188.417 76.167 C 188.554 76.556,188.667 77.099,188.667 77.374 C 188.667 77.818,188.836 78.476,189.365 80.083 C 189.455 80.358,189.591 80.808,189.667 81.083 C 190.078 82.581,191.797 86.393,192.672 87.750 C 192.850 88.025,193.071 88.400,193.164 88.583 C 193.366 88.983,193.717 89.551,193.834 89.667 C 193.880 89.712,194.134 90.069,194.398 90.458 C 194.662 90.848,194.943 91.167,195.023 91.167 C 195.102 91.167,195.167 91.279,195.167 91.417 C 195.167 91.554,195.225 91.667,195.297 91.667 C 195.369 91.667,195.560 91.890,195.721 92.162 C 196.060 92.736,198.820 95.551,199.647 96.167 C 199.955 96.396,200.327 96.715,200.474 96.875 C 200.621 97.035,200.794 97.167,200.860 97.167 C 200.926 97.167,201.226 97.392,201.527 97.667 C 201.828 97.942,202.141 98.167,202.221 98.167 C 202.302 98.167,202.642 98.379,202.976 98.639 C 203.310 98.899,203.696 99.162,203.833 99.224 C 203.971 99.286,204.308 99.484,204.583 99.663 C 204.858 99.842,205.476 100.183,205.955 100.421 C 206.434 100.659,206.870 100.925,206.923 101.011 C 206.976 101.096,207.203 101.167,207.427 101.167 C 207.650 101.167,207.833 101.240,207.833 101.330 C 207.833 101.420,208.040 101.544,208.292 101.605 C 208.544 101.666,208.898 101.818,209.079 101.942 C 209.260 102.065,209.560 102.169,209.745 102.172 C 209.931 102.175,210.229 102.287,210.407 102.422 C 210.585 102.557,210.922 102.669,211.157 102.672 C 211.391 102.675,211.729 102.787,211.907 102.922 C 212.085 103.057,212.432 103.167,212.679 103.167 C 212.926 103.167,213.343 103.279,213.606 103.416 C 213.869 103.553,214.387 103.665,214.758 103.666 C 215.130 103.666,215.516 103.750,215.618 103.851 C 215.720 103.953,216.428 104.098,217.193 104.174 C 217.958 104.250,218.958 104.388,219.417 104.480 C 220.519 104.701,228.706 104.701,229.667 104.479 C 230.079 104.384,230.963 104.250,231.632 104.180 C 232.300 104.110,232.934 103.966,233.040 103.860 C 233.146 103.754,233.541 103.667,233.918 103.667 C 234.295 103.667,234.749 103.557,234.926 103.422 C 235.104 103.287,235.479 103.175,235.760 103.172 C 236.040 103.169,236.415 103.057,236.593 102.922 C 236.771 102.787,237.109 102.675,237.343 102.672 C 237.578 102.669,237.915 102.557,238.093 102.422 C 238.271 102.287,238.571 102.175,238.760 102.172 C 238.949 102.169,239.249 102.057,239.426 101.922 C 239.604 101.787,239.913 101.675,240.113 101.672 C 240.313 101.669,240.589 101.554,240.726 101.417 C 240.864 101.279,241.122 101.167,241.301 101.167 C 241.480 101.167,241.719 101.054,241.833 100.917 C 241.947 100.779,242.176 100.667,242.342 100.667 C 242.507 100.667,242.755 100.554,242.893 100.417 C 243.030 100.279,243.256 100.167,243.395 100.167 C 243.534 100.167,243.696 100.087,243.756 99.990 C 243.817 99.892,244.027 99.741,244.225 99.654 C 244.422 99.567,244.808 99.347,245.083 99.166 C 245.358 98.985,245.752 98.749,245.958 98.642 C 246.165 98.534,246.333 98.384,246.333 98.307 C 246.333 98.230,246.415 98.167,246.515 98.167 C 246.795 98.167,249.071 96.050,249.920 95.000 C 250.393 94.416,251.000 93.213,251.000 92.862 C 251.000 92.699,251.091 92.476,251.202 92.364 C 251.331 92.236,251.405 91.617,251.405 90.667 C 251.405 89.716,251.331 89.098,251.202 88.969 C 251.091 88.858,251.000 88.622,251.000 88.445 C 251.000 87.666,248.691 84.833,248.056 84.833 C 247.933 84.833,247.833 84.760,247.833 84.670 C 247.833 84.580,247.627 84.457,247.375 84.397 C 247.123 84.337,246.814 84.206,246.689 84.107 C 246.277 83.781,243.300 83.763,242.219 84.079 C 241.156 84.391,238.783 85.480,238.694 85.697 C 238.664 85.772,238.544 85.833,238.428 85.833 C 238.312 85.833,237.920 86.040,237.558 86.292 C 236.618 86.945,236.344 87.106,235.500 87.500 C 235.088 87.692,234.538 87.958,234.278 88.091 C 234.019 88.225,233.681 88.334,233.528 88.334 C 233.375 88.335,233.055 88.437,232.816 88.562 C 232.578 88.686,232.015 88.843,231.566 88.911 C 231.117 88.978,230.637 89.092,230.500 89.165 C 228.942 89.987,219.807 89.565,217.558 88.566 C 217.269 88.438,216.933 88.333,216.812 88.333 C 216.537 88.333,213.498 86.827,213.196 86.542 C 213.075 86.427,212.869 86.333,212.738 86.333 C 212.607 86.333,212.500 86.277,212.500 86.208 C 212.500 86.140,212.010 85.721,211.411 85.277 C 210.084 84.295,207.728 81.683,206.819 80.186 C 205.957 78.766,205.925 78.707,205.576 77.917 C 205.415 77.550,205.182 77.051,205.058 76.808 C 204.934 76.564,204.833 76.223,204.833 76.049 C 204.833 75.876,204.764 75.662,204.679 75.575 C 204.402 75.290,204.191 73.687,204.407 73.508 C 204.529 73.406,212.982 73.329,227.259 73.298 C 248.021 73.254,249.965 73.227,250.500 72.972 C 250.821 72.818,251.252 72.645,251.458 72.585 C 251.665 72.526,251.833 72.408,251.833 72.322 C 251.833 72.237,251.967 72.167,252.130 72.167 C 252.292 72.167,252.672 71.942,252.973 71.667 C 253.274 71.392,253.557 71.167,253.602 71.167 C 253.768 71.167,254.838 69.906,254.939 69.591 C 254.997 69.412,255.147 69.163,255.272 69.038 C 255.397 68.912,255.500 68.680,255.500 68.521 C 255.500 68.363,255.594 68.140,255.708 68.025 C 255.992 67.742,256.086 63.282,255.840 61.750 C 255.737 61.108,255.587 60.085,255.505 59.475 C 255.424 58.866,255.281 58.228,255.187 58.059 C 255.094 57.889,254.971 57.395,254.916 56.962 C 254.860 56.529,254.743 56.131,254.657 56.077 C 254.571 56.024,254.500 55.816,254.499 55.615 C 254.498 55.414,254.396 55.056,254.272 54.818 C 254.148 54.580,253.995 54.111,253.933 53.776 C 253.870 53.441,253.755 53.167,253.678 53.167 C 253.600 53.167,253.488 52.904,253.428 52.583 C 253.367 52.262,253.247 52.000,253.159 52.000 C 253.072 52.000,253.000 51.887,253.000 51.749 C 253.000 51.612,252.850 51.219,252.667 50.877 C 252.483 50.535,252.333 50.160,252.333 50.044 C 252.333 49.928,252.277 49.833,252.208 49.832 C 252.140 49.831,251.900 49.418,251.676 48.915 C 251.453 48.412,251.218 48.000,251.154 48.000 C 251.091 48.000,250.991 47.869,250.933 47.708 C 250.818 47.390,250.710 47.207,249.813 45.825 C 247.543 42.324,242.738 37.646,239.277 35.568 C 238.833 35.301,238.271 34.957,238.027 34.802 C 236.909 34.091,233.134 32.336,232.708 32.328 C 232.548 32.325,232.271 32.213,232.093 32.078 C 231.915 31.943,231.563 31.833,231.311 31.833 C 231.059 31.833,230.809 31.763,230.756 31.676 C 230.703 31.590,230.304 31.474,229.871 31.418 C 229.438 31.362,228.951 31.244,228.790 31.156 C 228.052 30.752,219.136 30.253,218.792 30.596 M289.117 30.606 C 289.059 30.664,288.324 30.775,287.485 30.852 C 286.646 30.929,285.875 31.059,285.771 31.140 C 285.668 31.221,285.216 31.335,284.767 31.394 C 284.318 31.452,283.868 31.566,283.767 31.646 C 283.666 31.726,283.358 31.831,283.083 31.880 C 282.620 31.962,281.540 32.318,280.750 32.649 C 280.348 32.817,276.958 34.500,276.446 34.786 C 275.956 35.059,275.504 35.374,275.241 35.625 C 275.122 35.740,274.975 35.833,274.915 35.833 C 274.584 35.833,271.271 38.917,270.250 40.176 C 269.602 40.975,268.667 42.422,268.667 42.626 C 268.667 42.740,268.597 42.833,268.511 42.833 C 268.426 42.833,268.308 43.002,268.250 43.208 C 268.191 43.415,268.042 43.808,267.918 44.083 C 267.312 45.422,267.167 45.832,267.167 46.200 C 267.167 46.420,267.088 46.678,266.992 46.774 C 266.297 47.470,266.292 55.844,266.986 57.140 C 267.085 57.326,267.167 57.640,267.167 57.839 C 267.167 58.187,267.337 58.642,268.015 60.102 C 268.190 60.478,268.333 60.872,268.333 60.977 C 268.333 61.081,268.400 61.167,268.482 61.167 C 268.564 61.167,268.678 61.354,268.735 61.583 C 268.793 61.813,268.913 62.000,269.003 62.000 C 269.093 62.000,269.167 62.078,269.167 62.173 C 269.167 62.344,269.590 62.986,270.250 63.817 C 271.021 64.788,273.446 67.063,273.875 67.218 C 274.035 67.276,274.167 67.391,274.167 67.475 C 274.167 67.559,274.298 67.673,274.458 67.729 C 274.619 67.784,274.975 67.979,275.250 68.162 C 275.525 68.345,275.911 68.567,276.109 68.654 C 276.306 68.741,276.517 68.892,276.577 68.990 C 276.637 69.087,276.800 69.167,276.938 69.167 C 277.077 69.167,277.303 69.279,277.440 69.417 C 277.578 69.554,277.835 69.667,278.012 69.667 C 278.189 69.667,278.333 69.737,278.333 69.822 C 278.333 69.908,278.502 70.025,278.708 70.084 C 279.096 70.193,279.920 70.550,280.692 70.942 C 280.936 71.066,281.273 71.169,281.442 71.172 C 281.612 71.175,281.896 71.287,282.074 71.422 C 282.251 71.557,282.589 71.669,282.824 71.672 C 283.058 71.675,283.396 71.787,283.574 71.922 C 283.751 72.057,284.089 72.169,284.324 72.172 C 284.558 72.175,284.896 72.287,285.074 72.422 C 285.251 72.557,285.589 72.669,285.824 72.672 C 286.058 72.675,286.396 72.787,286.574 72.922 C 286.751 73.057,287.126 73.169,287.407 73.172 C 287.687 73.175,288.062 73.287,288.240 73.422 C 288.418 73.557,288.728 73.667,288.929 73.667 C 289.131 73.667,289.510 73.779,289.773 73.916 C 290.035 74.053,290.448 74.165,290.689 74.166 C 290.931 74.166,291.343 74.279,291.606 74.416 C 291.869 74.553,292.308 74.667,292.583 74.671 C 292.858 74.674,293.229 74.787,293.407 74.922 C 293.585 75.057,293.960 75.169,294.240 75.172 C 294.521 75.175,294.896 75.287,295.074 75.422 C 295.251 75.557,295.589 75.669,295.824 75.672 C 296.058 75.675,296.396 75.787,296.574 75.922 C 296.751 76.057,297.076 76.167,297.294 76.167 C 297.512 76.167,297.803 76.279,297.940 76.417 C 298.078 76.554,298.378 76.667,298.607 76.667 C 298.836 76.667,299.136 76.779,299.274 76.917 C 299.411 77.054,299.706 77.167,299.929 77.167 C 300.151 77.167,300.333 77.234,300.333 77.317 C 300.333 77.400,300.540 77.550,300.792 77.651 C 301.044 77.752,301.475 77.983,301.750 78.165 C 302.025 78.347,302.353 78.546,302.478 78.607 C 304.194 79.439,305.333 81.619,305.333 84.071 C 305.333 85.867,305.283 86.091,304.530 87.667 C 304.221 88.312,302.724 89.833,302.398 89.833 C 302.284 89.833,302.091 89.927,301.970 90.042 C 299.886 92.013,289.667 91.784,285.250 89.667 C 285.067 89.579,284.729 89.429,284.500 89.334 C 284.271 89.239,283.858 89.014,283.583 88.833 C 283.308 88.653,282.933 88.429,282.750 88.336 C 281.836 87.874,279.403 86.048,278.179 84.908 C 277.668 84.431,276.837 83.658,276.333 83.189 C 275.829 82.720,275.329 82.335,275.222 82.335 C 275.115 82.334,275.003 82.274,274.972 82.201 C 274.873 81.965,273.720 81.333,273.389 81.333 C 273.212 81.333,272.973 81.240,272.858 81.125 C 272.723 80.990,272.131 80.917,271.167 80.917 C 270.202 80.917,269.610 80.990,269.475 81.125 C 269.360 81.240,269.134 81.333,268.972 81.333 C 268.640 81.333,267.280 81.997,267.194 82.201 C 267.164 82.274,267.033 82.333,266.904 82.333 C 266.442 82.333,264.538 84.407,264.079 85.411 C 263.597 86.465,263.498 89.965,263.935 90.516 C 264.037 90.645,264.170 90.956,264.230 91.208 C 264.290 91.460,264.413 91.667,264.503 91.667 C 264.593 91.667,264.667 91.768,264.667 91.891 C 264.667 92.015,264.798 92.270,264.958 92.458 C 265.119 92.646,265.550 93.160,265.917 93.600 C 266.852 94.723,268.761 96.665,268.937 96.674 C 269.017 96.678,269.267 96.903,269.492 97.174 C 269.717 97.445,269.956 97.667,270.024 97.667 C 270.091 97.667,270.392 97.892,270.694 98.167 C 270.995 98.442,271.330 98.667,271.440 98.667 C 271.549 98.667,271.664 98.723,271.694 98.792 C 271.783 98.992,272.684 99.573,273.541 99.983 C 273.976 100.192,274.374 100.431,274.426 100.514 C 274.477 100.598,274.656 100.667,274.823 100.667 C 274.989 100.667,275.219 100.779,275.333 100.917 C 275.447 101.054,275.687 101.167,275.866 101.167 C 276.044 101.167,276.303 101.279,276.440 101.417 C 276.578 101.554,276.854 101.669,277.054 101.672 C 277.253 101.675,277.562 101.787,277.740 101.922 C 277.918 102.057,278.256 102.169,278.490 102.172 C 278.725 102.175,279.062 102.287,279.240 102.422 C 279.418 102.557,279.793 102.669,280.074 102.672 C 280.354 102.675,280.729 102.787,280.907 102.922 C 281.085 103.057,281.470 103.167,281.763 103.167 C 282.056 103.167,282.510 103.279,282.773 103.416 C 283.035 103.553,283.536 103.665,283.886 103.666 C 284.236 103.666,284.686 103.755,284.886 103.864 C 285.086 103.973,285.813 104.118,286.500 104.186 C 287.188 104.255,288.125 104.386,288.583 104.479 C 289.708 104.706,297.234 104.707,298.083 104.481 C 298.450 104.383,299.202 104.246,299.755 104.177 C 300.308 104.107,300.922 103.964,301.119 103.859 C 301.317 103.753,301.694 103.667,301.957 103.667 C 302.221 103.667,302.582 103.557,302.760 103.422 C 302.938 103.287,303.322 103.175,303.613 103.172 C 303.904 103.169,304.255 103.054,304.393 102.917 C 304.530 102.779,304.830 102.667,305.060 102.667 C 305.289 102.667,305.589 102.554,305.726 102.417 C 305.864 102.279,306.126 102.167,306.310 102.167 C 306.493 102.167,306.755 102.054,306.893 101.917 C 307.030 101.779,307.289 101.667,307.468 101.667 C 307.646 101.667,307.880 101.562,307.986 101.433 C 308.093 101.305,308.365 101.153,308.590 101.097 C 308.816 101.040,309.000 100.920,309.000 100.830 C 309.000 100.740,309.120 100.667,309.268 100.667 C 309.415 100.667,309.819 100.442,310.167 100.167 C 310.514 99.892,310.864 99.667,310.945 99.667 C 311.026 99.667,311.339 99.442,311.640 99.167 C 311.941 98.892,312.242 98.667,312.309 98.667 C 313.393 98.667,319.000 91.456,319.000 90.062 C 319.000 89.924,319.092 89.648,319.204 89.447 C 320.776 86.645,320.320 78.174,318.387 74.250 C 317.000 71.436,314.979 69.070,312.372 67.208 C 312.083 67.002,311.769 66.833,311.673 66.833 C 311.578 66.833,311.500 66.777,311.499 66.708 C 311.497 66.482,307.502 64.333,307.082 64.333 C 306.945 64.333,306.833 64.264,306.833 64.180 C 306.833 64.096,306.590 63.973,306.292 63.909 C 305.994 63.844,305.602 63.688,305.421 63.562 C 305.240 63.436,304.968 63.333,304.815 63.333 C 304.663 63.333,304.323 63.221,304.061 63.084 C 303.798 62.947,303.461 62.835,303.311 62.834 C 303.161 62.834,302.823 62.721,302.561 62.584 C 302.298 62.447,301.961 62.335,301.811 62.334 C 301.661 62.334,301.323 62.221,301.061 62.084 C 300.798 61.947,300.423 61.835,300.227 61.834 C 300.032 61.834,299.657 61.721,299.394 61.584 C 299.131 61.447,298.715 61.335,298.468 61.334 C 298.221 61.334,297.976 61.263,297.923 61.176 C 297.869 61.090,297.471 60.968,297.038 60.905 C 296.605 60.843,296.175 60.734,296.083 60.665 C 295.992 60.595,295.654 60.487,295.333 60.423 C 295.012 60.360,294.450 60.209,294.083 60.088 C 293.717 59.967,292.967 59.736,292.417 59.575 C 291.867 59.414,291.180 59.181,290.891 59.057 C 290.603 58.934,290.255 58.833,290.119 58.833 C 289.983 58.833,289.657 58.721,289.394 58.584 C 289.131 58.447,288.767 58.333,288.583 58.329 C 288.400 58.326,288.104 58.213,287.926 58.078 C 287.749 57.943,287.467 57.833,287.301 57.833 C 287.136 57.833,287.000 57.760,287.000 57.670 C 287.000 57.580,286.794 57.456,286.542 57.394 C 286.290 57.332,286.046 57.237,286.000 57.183 C 285.865 57.022,284.855 56.333,284.754 56.333 C 284.537 56.333,283.115 54.711,282.965 54.292 C 282.875 54.040,282.733 53.833,282.650 53.833 C 282.568 53.833,282.500 53.675,282.500 53.482 C 282.500 53.289,282.381 52.672,282.235 52.110 C 281.657 49.877,283.326 45.667,284.790 45.667 C 284.911 45.667,285.054 45.554,285.106 45.417 C 285.159 45.279,285.328 45.167,285.481 45.167 C 285.634 45.167,285.907 45.065,286.088 44.941 C 286.269 44.817,286.750 44.664,287.158 44.601 C 287.566 44.537,288.005 44.398,288.134 44.291 C 288.533 43.960,296.117 44.050,296.750 44.393 C 297.025 44.542,297.512 44.667,297.833 44.671 C 298.154 44.674,298.562 44.787,298.740 44.922 C 298.918 45.057,299.193 45.167,299.352 45.167 C 299.605 45.167,300.215 45.424,301.000 45.862 C 301.137 45.939,301.344 46.039,301.458 46.084 C 301.999 46.298,302.116 46.358,302.583 46.667 C 302.858 46.848,303.196 47.048,303.333 47.111 C 303.471 47.173,303.643 47.324,303.717 47.446 C 303.790 47.567,303.921 47.667,304.008 47.667 C 304.095 47.667,304.901 48.401,305.798 49.298 C 307.356 50.856,308.499 51.667,309.138 51.667 C 309.301 51.667,309.524 51.757,309.634 51.867 C 309.972 52.205,312.869 52.256,313.511 51.936 C 313.808 51.788,314.181 51.667,314.339 51.667 C 314.497 51.667,314.719 51.554,314.833 51.417 C 314.947 51.279,315.140 51.167,315.262 51.167 C 315.471 51.167,317.394 49.348,317.750 48.814 C 319.169 46.684,318.602 42.547,316.567 40.190 C 314.995 38.369,312.153 35.833,311.684 35.833 C 311.583 35.833,311.500 35.766,311.500 35.683 C 311.500 35.600,311.294 35.450,311.042 35.349 C 310.790 35.248,310.358 35.017,310.083 34.835 C 309.808 34.653,309.471 34.457,309.333 34.401 C 309.196 34.344,308.633 34.087,308.083 33.829 C 306.582 33.125,305.884 32.833,305.702 32.833 C 305.612 32.833,305.323 32.721,305.061 32.584 C 304.798 32.447,304.461 32.335,304.311 32.334 C 304.161 32.334,303.823 32.221,303.561 32.084 C 303.298 31.947,302.855 31.835,302.575 31.834 C 302.295 31.834,301.993 31.759,301.903 31.669 C 301.736 31.503,300.772 31.312,298.500 30.995 C 297.813 30.899,296.833 30.749,296.323 30.660 C 295.300 30.483,289.285 30.438,289.117 30.606 M176.250 30.917 C 177.548 31.160,177.780 31.236,179.000 31.809 C 182.493 33.450,184.042 36.587,183.342 40.601 C 182.448 45.736,177.535 47.798,171.667 45.500 C 164.490 42.691,157.185 46.890,154.272 55.500 C 153.213 58.630,153.270 57.477,153.165 77.833 C 153.083 93.760,153.033 96.548,152.815 97.338 C 150.698 105.019,139.684 105.055,137.492 97.389 C 136.991 95.637,136.981 39.552,137.482 37.833 C 138.524 34.252,141.366 32.104,145.083 32.089 C 149.681 32.071,152.693 35.052,153.146 40.070 C 153.276 41.510,153.434 41.557,154.167 40.373 C 155.399 38.382,159.098 35.079,161.446 33.875 C 161.829 33.679,162.279 33.442,162.446 33.348 C 165.835 31.454,172.684 30.248,176.250 30.917 M225.000 30.844 C 225.963 30.943,227.237 31.131,227.833 31.262 C 228.429 31.393,229.030 31.501,229.168 31.500 C 229.426 31.500,232.819 32.549,233.417 32.814 C 239.123 35.344,244.303 39.097,247.251 42.838 C 247.434 43.070,247.851 43.595,248.178 44.005 C 248.886 44.892,250.167 46.770,250.867 47.947 C 251.158 48.437,252.827 51.790,253.092 52.417 C 253.208 52.692,253.430 53.254,253.585 53.667 C 253.740 54.079,253.972 54.663,254.100 54.964 C 254.228 55.265,254.333 55.638,254.333 55.792 C 254.333 55.946,254.438 56.375,254.567 56.744 C 255.181 58.514,255.833 62.815,255.834 65.106 C 255.836 68.816,254.065 71.337,250.564 72.608 L 249.485 73.000 227.034 73.002 C 203.037 73.005,203.758 72.985,203.887 73.648 C 204.049 74.485,204.369 75.588,204.600 76.109 C 204.728 76.397,204.833 76.749,204.833 76.890 C 204.833 77.032,204.900 77.188,204.982 77.239 C 205.063 77.289,205.177 77.518,205.234 77.747 C 205.525 78.903,208.141 82.614,209.776 84.188 C 214.674 88.905,220.404 90.550,228.833 89.657 C 231.707 89.352,235.106 88.240,236.936 87.004 C 237.347 86.727,237.714 86.500,237.752 86.500 C 237.790 86.500,238.369 86.167,239.039 85.761 C 243.013 83.348,246.808 83.527,249.285 86.242 C 253.005 90.320,251.067 95.520,244.419 99.297 C 243.464 99.840,240.327 101.353,239.833 101.510 C 239.604 101.582,239.004 101.801,238.500 101.995 C 231.057 104.868,221.790 105.271,213.407 103.088 C 211.280 102.534,207.979 101.278,206.522 100.469 C 206.189 100.285,205.617 99.972,205.252 99.775 C 201.770 97.898,196.090 92.888,194.764 90.522 C 194.680 90.372,194.567 90.212,194.513 90.167 C 193.443 89.266,190.654 83.551,189.673 80.250 C 187.221 72.003,187.547 61.296,190.493 53.333 C 191.535 50.516,194.547 44.990,195.489 44.167 C 195.541 44.121,196.011 43.554,196.534 42.908 C 200.688 37.768,207.322 33.494,213.667 31.869 C 216.142 31.235,216.568 31.154,218.313 30.986 C 219.287 30.893,220.158 30.788,220.250 30.754 C 220.608 30.622,223.338 30.674,225.000 30.844 M296.000 30.917 C 298.406 31.166,298.713 31.216,301.250 31.766 C 303.848 32.330,307.206 33.554,309.308 34.703 C 310.786 35.512,310.887 35.570,311.417 35.913 C 316.794 39.395,319.540 44.469,317.912 47.911 C 315.759 52.462,309.620 53.248,306.247 49.406 C 302.511 45.151,295.860 42.991,289.321 43.911 C 284.259 44.623,281.833 46.892,281.833 50.917 C 281.833 55.164,284.524 57.480,292.083 59.741 C 292.633 59.905,293.421 60.141,293.833 60.264 C 294.246 60.388,295.033 60.612,295.583 60.762 C 296.133 60.912,296.921 61.137,297.333 61.263 C 297.746 61.388,298.646 61.651,299.333 61.847 C 301.591 62.491,305.440 63.804,306.583 64.320 C 314.545 67.915,318.211 72.005,319.594 78.833 C 323.216 96.706,303.138 109.264,281.333 102.763 C 280.921 102.640,280.133 102.409,279.583 102.250 C 279.033 102.090,278.337 101.856,278.036 101.730 C 277.735 101.603,277.415 101.500,277.325 101.500 C 276.644 101.500,272.792 99.344,270.750 97.820 C 268.843 96.396,264.667 92.128,264.667 91.603 C 264.667 91.589,264.511 91.167,264.322 90.664 C 262.073 84.704,268.475 79.111,274.265 81.978 C 274.816 82.251,276.078 83.284,277.435 84.574 C 280.342 87.337,283.679 89.475,286.620 90.457 C 293.091 92.619,300.700 92.002,303.728 89.069 C 306.138 86.735,306.308 82.152,304.078 79.682 C 302.761 78.224,299.041 76.282,296.083 75.507 C 295.808 75.435,295.396 75.299,295.167 75.205 C 294.938 75.111,293.887 74.792,292.833 74.497 C 291.779 74.202,290.204 73.745,289.333 73.482 C 288.462 73.218,287.337 72.880,286.833 72.729 C 286.329 72.579,285.654 72.364,285.333 72.252 C 285.012 72.139,284.487 71.955,284.167 71.842 C 283.846 71.730,283.358 71.575,283.083 71.500 C 282.808 71.424,282.171 71.199,281.667 71.000 C 281.162 70.801,280.604 70.595,280.427 70.542 C 276.008 69.216,270.328 64.467,268.495 60.567 C 266.405 56.119,266.079 49.249,267.759 45.061 C 269.261 41.317,271.097 39.064,275.250 35.864 C 276.544 34.867,279.786 33.250,281.919 32.537 C 284.826 31.565,286.402 31.202,288.646 30.986 C 289.620 30.893,290.492 30.788,290.583 30.754 C 290.990 30.604,293.787 30.688,296.000 30.917 M218.750 45.507 C 211.721 46.260,207.003 50.054,204.665 56.833 C 204.337 57.786,204.024 59.369,204.117 59.610 C 204.188 59.797,207.110 59.828,221.476 59.792 L 238.750 59.750 238.801 58.949 C 238.962 56.437,237.130 52.717,234.560 50.333 C 230.133 46.228,225.429 44.792,218.750 45.507 M225.577 45.824 C 225.631 45.910,226.029 46.032,226.462 46.095 C 226.895 46.158,227.453 46.313,227.700 46.438 C 227.948 46.564,228.304 46.667,228.492 46.667 C 228.680 46.667,228.833 46.737,228.833 46.822 C 228.833 46.908,229.002 47.027,229.208 47.088 C 230.008 47.322,231.239 47.991,232.190 48.708 C 232.524 48.960,232.854 49.167,232.922 49.167 C 233.078 49.167,236.167 52.245,236.167 52.400 C 236.167 52.503,236.801 53.468,237.000 53.667 C 237.514 54.181,238.672 57.910,238.668 59.042 L 238.667 59.500 221.578 59.500 C 202.307 59.500,204.029 59.636,204.554 58.157 C 204.708 57.725,204.833 57.244,204.833 57.087 C 204.833 56.930,204.934 56.602,205.058 56.359 C 205.450 55.587,205.807 54.762,205.916 54.375 C 205.975 54.169,206.092 54.000,206.178 54.000 C 206.263 54.000,206.333 53.903,206.333 53.784 C 206.333 53.029,209.764 48.985,210.712 48.621 C 210.871 48.560,211.000 48.441,211.000 48.357 C 211.000 48.272,211.188 48.156,211.417 48.098 C 211.646 48.041,211.833 47.920,211.833 47.830 C 211.833 47.740,211.978 47.667,212.155 47.667 C 212.332 47.667,212.589 47.554,212.726 47.417 C 212.864 47.279,213.126 47.167,213.310 47.167 C 213.493 47.167,213.755 47.054,213.893 46.917 C 214.030 46.779,214.317 46.666,214.530 46.666 C 214.743 46.665,215.131 46.553,215.394 46.416 C 215.657 46.279,216.144 46.162,216.477 46.157 C 216.811 46.152,217.346 46.049,217.667 45.927 C 218.366 45.663,225.421 45.570,225.577 45.824 " stroke="none" fill="#fff8ba" fill-rule="evenodd"></path>
<path id="path4" d="M64.583 10.433 L 63.417 10.653 64.583 10.575 C 69.040 10.273,69.203 10.273,69.361 10.556 C 69.470 10.750,69.595 10.785,69.798 10.678 C 69.955 10.596,70.346 10.455,70.667 10.364 C 71.595 10.104,65.988 10.167,64.583 10.433 M61.083 10.921 C 60.151 11.228,61.054 11.228,62.250 10.920 L 63.083 10.706 62.417 10.704 C 62.050 10.703,61.450 10.800,61.083 10.921 M58.667 11.427 C 57.863 11.731,58.534 11.730,59.500 11.425 C 60.143 11.223,60.179 11.190,59.750 11.198 C 59.475 11.203,58.987 11.306,58.667 11.427 M56.750 11.923 C 56.075 12.232,56.695 12.227,57.500 11.917 C 58.006 11.722,58.028 11.692,57.667 11.693 C 57.438 11.693,57.025 11.797,56.750 11.923 M54.917 12.449 C 54.550 12.587,53.987 12.798,53.667 12.917 C 50.562 14.076,45.828 16.384,46.066 16.622 C 46.112 16.668,46.510 16.489,46.950 16.224 C 47.879 15.665,50.213 14.519,51.417 14.031 C 53.180 13.315,54.602 12.785,55.369 12.557 C 55.808 12.427,56.167 12.286,56.167 12.244 C 56.167 12.102,55.589 12.197,54.917 12.449 M64.887 16.013 C 64.791 16.109,64.158 16.261,63.481 16.351 C 62.123 16.531,60.531 16.873,58.750 17.368 C 58.108 17.547,57.321 17.765,57.000 17.854 C 56.679 17.943,56.267 18.077,56.083 18.152 C 55.900 18.228,55.112 18.537,54.333 18.840 C 42.474 23.454,33.023 34.359,29.999 46.917 C 26.407 61.830,31.812 78.417,43.249 87.583 C 43.706 87.950,44.268 88.419,44.497 88.625 C 44.726 88.831,44.965 89.000,45.028 89.000 C 45.091 89.000,45.263 89.121,45.411 89.268 C 46.357 90.214,51.587 93.165,54.417 94.349 C 56.643 95.281,60.263 96.246,63.792 96.847 C 64.666 96.996,65.000 97.123,65.000 97.305 C 65.000 97.443,65.041 97.514,65.091 97.464 C 65.425 97.130,64.948 96.581,64.284 96.536 C 54.323 95.863,42.336 88.453,36.053 79.083 C 22.000 58.131,30.666 28.782,53.667 19.426 C 54.262 19.183,54.900 18.919,55.083 18.838 C 56.852 18.060,61.756 16.810,63.946 16.579 C 64.650 16.505,65.007 16.388,65.075 16.211 C 65.201 15.882,65.112 15.788,64.887 16.013 M44.610 17.417 C 43.982 17.829,43.435 18.167,43.394 18.167 C 43.353 18.167,43.229 18.243,43.118 18.336 C 43.007 18.429,42.392 18.893,41.750 19.367 C 41.108 19.841,40.546 20.271,40.500 20.322 C 40.454 20.374,39.930 20.829,39.334 21.333 C 38.739 21.837,37.802 22.680,37.251 23.205 C 36.701 23.730,36.158 24.161,36.046 24.163 C 35.934 24.165,35.717 24.408,35.565 24.702 L 35.288 25.238 35.842 24.744 C 36.146 24.472,36.925 23.755,37.573 23.149 C 38.220 22.544,38.969 21.869,39.237 21.649 C 39.505 21.430,39.847 21.133,39.997 20.990 C 40.503 20.508,42.904 18.748,44.375 17.781 C 45.618 16.963,45.997 16.665,45.792 16.667 C 45.769 16.667,45.237 17.005,44.610 17.417 M63.333 20.931 C 57.385 22.144,51.903 24.402,51.103 25.967 C 50.326 27.488,50.572 28.220,52.879 31.268 C 53.912 32.633,56.750 36.375,59.184 39.583 C 61.619 42.792,63.867 45.768,64.181 46.198 C 64.494 46.628,64.806 46.984,64.875 46.990 C 64.944 46.995,65.000 41.075,65.000 33.833 C 65.000 21.397,64.984 20.668,64.708 20.688 C 64.548 20.700,63.929 20.809,63.333 20.931 M34.573 25.875 L 34.083 26.417 34.625 25.927 C 35.130 25.471,35.243 25.333,35.115 25.333 C 35.086 25.333,34.842 25.577,34.573 25.875 M32.167 28.833 C 31.971 29.108,31.848 29.333,31.894 29.333 C 31.940 29.333,32.138 29.108,32.333 28.833 C 32.529 28.558,32.652 28.333,32.606 28.333 C 32.560 28.333,32.362 28.558,32.167 28.833 M31.167 30.250 C 30.883 30.662,30.688 31.000,30.734 31.000 C 30.780 31.000,31.050 30.662,31.333 30.250 C 31.617 29.837,31.812 29.500,31.766 29.500 C 31.720 29.500,31.450 29.837,31.167 30.250 M44.583 30.655 C 44.067 30.893,43.495 31.451,42.008 33.167 C 36.924 39.031,33.500 47.787,33.500 54.921 C 33.500 58.287,34.485 58.968,38.553 58.412 C 39.578 58.272,41.317 58.043,42.417 57.904 C 43.517 57.764,45.242 57.544,46.250 57.415 C 47.258 57.287,49.021 57.064,50.167 56.921 C 52.258 56.659,54.507 56.371,57.917 55.927 C 58.925 55.796,60.237 55.637,60.833 55.575 C 62.654 55.384,63.496 54.718,63.626 53.366 C 63.727 52.313,63.607 52.095,61.206 48.977 C 60.122 47.569,58.268 45.142,57.087 43.583 C 49.406 33.455,47.644 31.190,47.242 30.927 C 46.730 30.591,45.085 30.423,44.583 30.655 M30.397 31.375 C 29.823 32.348,29.786 32.431,30.078 32.083 C 30.416 31.680,30.708 31.167,30.599 31.167 C 30.555 31.167,30.464 31.260,30.397 31.375 M28.917 33.833 C 28.774 34.108,28.696 34.333,28.741 34.333 C 28.787 34.333,28.941 34.108,29.083 33.833 C 29.226 33.558,29.304 33.333,29.259 33.333 C 29.213 33.333,29.059 33.558,28.917 33.833 M61.417 59.603 C 59.758 59.834,51.422 60.898,47.250 61.411 C 46.058 61.558,44.296 61.783,43.333 61.912 C 42.371 62.041,40.571 62.271,39.333 62.423 C 34.259 63.045,33.809 64.019,35.915 69.814 C 38.237 76.204,43.698 82.851,49.943 86.891 C 51.735 88.051,53.251 88.069,54.309 86.943 C 54.610 86.623,58.071 78.818,58.497 77.500 C 58.571 77.271,59.318 75.471,60.158 73.500 C 60.998 71.529,61.748 69.767,61.826 69.583 C 62.436 68.140,64.444 63.432,64.712 62.815 C 65.531 60.932,63.825 59.268,61.417 59.603 M25.834 72.782 C 25.834 72.983,25.917 73.199,26.020 73.262 C 26.123 73.326,26.539 74.099,26.945 74.981 C 33.885 90.036,46.286 99.669,62.167 102.340 C 64.559 102.743,70.828 102.988,69.917 102.644 C 69.642 102.540,69.323 102.381,69.208 102.291 C 69.058 102.172,69.000 102.208,69.000 102.420 C 69.000 102.694,68.832 102.707,66.708 102.601 C 49.563 101.746,33.663 90.529,26.934 74.542 C 26.312 73.064,25.835 72.300,25.834 72.782 M64.667 73.196 C 64.667 73.352,63.768 75.579,62.830 77.750 C 62.751 77.933,62.074 79.546,61.327 81.333 C 59.726 85.160,59.845 84.877,59.094 86.654 C 57.656 90.055,58.697 91.371,63.441 92.147 C 63.978 92.234,64.548 92.358,64.708 92.421 C 64.984 92.529,65.000 92.003,65.000 82.768 C 65.000 76.367,64.943 73.000,64.833 73.000 C 64.742 73.000,64.667 73.088,64.667 73.196 " stroke="none" fill="#fecc24" fill-rule="evenodd"></path></g></svg>