<svg id="svg" version="1.1" xmlns="http://www.w3.org/2000/svg" xmlns:xlink="http://www.w3.org/1999/xlink" width="400" height="400" viewBox="0, 0, 400,400"><g id="svgg"><path id="path0" d="M30.464 72.884 C 30.456 73.477,24.298 109.618,23.381 114.453 C 17.302 146.519,34.994 194.705,67.125 233.594 C 70.766 238.000,88.335 255.859,89.030 255.859 C 89.224 255.859,88.768 254.146,88.018 252.051 C 77.595 222.974,77.100 188.402,86.702 160.010 L 87.874 156.543 59.307 114.697 C 27.351 67.887,30.470 72.408,30.464 72.884 " stroke="none" fill="#3ccb43" fill-rule="evenodd"></path><path id="path1" d="M30.469 71.955 C 30.469 72.591,87.122 155.660,87.657 155.809 C 87.851 155.863,88.867 153.743,89.913 151.098 C 96.025 135.656,105.413 120.597,116.895 107.819 C 120.120 104.230,120.249 104.926,115.723 101.488 C 99.716 89.330,85.615 82.559,70.703 79.869 C 64.055 78.670,32.150 72.053,31.152 71.666 C 30.698 71.490,30.469 71.587,30.469 71.955 M22.364 120.898 C 22.368 121.758,22.448 122.063,22.542 121.577 C 22.635 121.092,22.632 120.388,22.534 120.015 C 22.436 119.642,22.360 120.039,22.364 120.898 M78.516 246.289 C 81.195 248.975,83.475 251.172,83.582 251.172 C 83.689 251.172,81.585 248.975,78.906 246.289 C 76.227 243.604,73.947 241.406,73.840 241.406 C 73.732 241.406,75.837 243.604,78.516 246.289 M85.156 252.466 C 85.156 252.533,85.728 253.104,86.426 253.736 L 87.695 254.883 86.548 253.613 C 85.479 252.430,85.156 252.164,85.156 252.466 " stroke="none" fill="#41d958" fill-rule="evenodd"></path><path id="path2" d="M210.742 61.378 C 105.573 70.338,45.908 187.270,100.292 277.838 C 157.871 373.725,298.903 369.161,350.430 269.742 C 402.065 170.115,322.769 51.833,210.742 61.378 M237.305 80.283 C 335.806 91.753,382.195 208.335,318.503 284.347 C 259.501 354.763,145.880 338.462,109.045 254.297 C 70.556 166.352,142.160 69.205,237.305 80.283 " stroke="none" fill="#feae1f" fill-rule="evenodd"></path><path id="path3" d="M220.996 79.585 C 222.124 79.664,223.970 79.664,225.098 79.585 C 226.226 79.506,225.303 79.441,223.047 79.441 C 220.791 79.441,219.868 79.506,220.996 79.585 M216.406 92.998 C 196.213 94.148,169.403 103.353,166.046 110.289 C 165.124 112.194,164.969 115.924,165.740 117.663 C 166.478 119.327,214.863 182.807,215.923 183.502 C 218.231 185.014,222.839 184.473,224.764 182.464 C 226.467 180.687,257.156 107.387,257.163 105.078 C 257.177 101.159,254.964 97.863,251.434 96.544 C 246.424 94.672,229.369 92.345,222.852 92.643 C 222.207 92.673,219.307 92.832,216.406 92.998 M122.058 102.441 L 119.727 104.883 122.168 102.551 C 124.436 100.386,124.788 100.000,124.499 100.000 C 124.439 100.000,123.340 101.099,122.058 102.441 M272.461 108.553 C 271.602 108.951,270.437 109.782,269.873 110.400 C 269.043 111.308,237.958 184.364,237.215 187.150 C 236.552 189.639,239.901 194.213,242.784 194.754 C 244.270 195.033,321.421 185.542,324.440 184.709 C 330.150 183.133,331.631 177.302,328.592 168.359 C 321.157 146.481,306.487 126.850,287.263 113.055 C 280.014 107.853,276.368 106.744,272.461 108.553 M315.218 120.410 C 316.176 121.431,317.011 122.266,317.074 122.266 C 317.367 122.266,317.057 121.915,315.332 120.296 L 313.477 118.555 315.218 120.410 M145.869 124.568 C 139.820 127.316,125.409 148.452,119.607 163.086 C 114.396 176.232,110.328 198.505,112.074 204.333 C 113.073 207.669,116.841 210.521,120.269 210.538 C 122.546 210.550,199.072 200.865,200.614 200.370 C 204.230 199.210,206.404 193.774,204.589 190.430 C 203.795 188.966,157.802 128.415,156.115 126.612 C 153.586 123.910,149.232 123.041,145.869 124.568 M347.356 195.703 C 347.356 196.455,347.437 196.763,347.535 196.387 C 347.633 196.011,347.633 195.396,347.535 195.020 C 347.437 194.644,347.356 194.951,347.356 195.703 M98.536 199.023 C 98.540 199.883,98.620 200.188,98.714 199.702 C 98.807 199.217,98.804 198.513,98.706 198.140 C 98.608 197.767,98.532 198.164,98.536 199.023 M285.352 202.538 C 264.512 205.206,246.879 207.494,246.168 207.622 C 243.217 208.157,240.299 212.401,240.721 215.545 C 240.987 217.532,290.285 282.619,292.299 283.644 C 298.601 286.849,305.559 281.496,316.226 265.234 C 329.329 245.260,338.449 210.943,332.997 202.128 C 329.643 196.703,331.033 196.691,285.352 202.538 M98.536 208.789 C 98.540 209.648,98.620 209.954,98.714 209.468 C 98.807 208.982,98.804 208.279,98.706 207.906 C 98.608 207.532,98.532 207.930,98.536 208.789 M347.356 212.891 C 347.356 213.643,347.437 213.950,347.535 213.574 C 347.633 213.198,347.633 212.583,347.535 212.207 C 347.437 211.831,347.356 212.139,347.356 212.891 M163.672 217.980 C 120.438 223.503,122.215 223.248,120.346 224.202 C 115.332 226.759,114.618 230.636,117.547 239.380 C 125.580 263.357,141.063 283.428,162.230 297.305 C 168.874 301.661,172.517 301.787,176.225 297.790 C 178.355 295.493,208.791 222.944,208.706 220.365 C 208.585 216.689,204.997 213.229,201.403 213.323 C 200.524 213.346,183.545 215.442,163.672 217.980 M223.016 224.736 C 220.705 225.958,221.876 223.424,204.654 264.453 C 187.071 306.339,187.686 304.326,191.063 308.987 C 195.195 314.692,221.828 317.212,242.188 313.824 C 255.853 311.550,276.310 303.671,279.314 299.524 C 281.427 296.607,281.777 292.983,280.226 290.079 C 278.064 286.029,231.399 225.380,229.857 224.615 C 227.718 223.555,225.164 223.600,223.016 224.736 M310.728 292.676 L 308.789 294.727 310.840 292.788 C 312.745 290.987,313.070 290.625,312.778 290.625 C 312.716 290.625,311.794 291.548,310.728 292.676 M123.047 306.836 C 124.214 308.018,125.257 308.984,125.364 308.984 C 125.471 308.984,124.604 308.018,123.438 306.836 C 122.271 305.654,121.228 304.688,121.120 304.688 C 121.013 304.688,121.880 305.654,123.047 306.836 M220.621 328.805 C 221.972 328.882,224.081 328.881,225.308 328.804 C 226.535 328.727,225.430 328.664,222.852 328.665 C 220.273 328.666,219.270 328.729,220.621 328.805 " stroke="none" fill="#fecd1f" fill-rule="evenodd"></path><path id="path4" d="M220.410 60.837 C 221.860 60.912,224.233 60.912,225.684 60.837 C 227.134 60.761,225.947 60.700,223.047 60.700 C 220.146 60.700,218.960 60.761,220.410 60.837 M209.769 80.282 C 105.770 92.114,61.352 218.684,135.334 292.383 C 200.297 357.097,311.041 331.275,340.966 244.436 C 370.453 158.867,299.487 70.075,209.769 80.282 M229.688 92.970 C 250.370 94.357,257.190 97.362,257.163 105.078 C 257.156 107.387,226.467 180.687,224.764 182.464 C 222.839 184.473,218.231 185.014,215.923 183.502 C 214.863 182.807,166.478 119.327,165.740 117.663 C 163.329 112.227,165.983 108.156,174.723 103.882 C 189.528 96.641,202.693 93.567,222.852 92.643 C 223.496 92.614,226.572 92.761,229.688 92.970 M281.193 109.187 C 295.804 116.924,313.573 136.170,322.439 153.863 C 332.000 172.942,332.616 182.452,324.440 184.709 C 321.421 185.542,244.270 195.033,242.784 194.754 C 239.901 194.213,236.552 189.639,237.215 187.150 C 237.958 184.364,269.043 111.308,269.873 110.400 C 272.566 107.450,277.012 106.974,281.193 109.187 M153.320 124.570 C 154.180 124.969,155.437 125.888,156.115 126.612 C 157.802 128.415,203.795 188.966,204.589 190.430 C 206.404 193.774,204.230 199.210,200.614 200.370 C 199.072 200.865,122.546 210.550,120.269 210.538 C 113.899 210.506,111.351 206.182,112.054 196.594 C 113.925 171.092,123.607 148.320,140.659 129.322 C 145.586 123.833,148.984 122.558,153.320 124.570 M21.987 127.148 C 21.990 128.223,22.066 128.616,22.155 128.022 C 22.245 127.428,22.243 126.549,22.150 126.069 C 22.057 125.588,21.984 126.074,21.987 127.148 M366.106 194.531 C 366.106 195.283,366.187 195.591,366.285 195.215 C 366.383 194.839,366.383 194.224,366.285 193.848 C 366.187 193.472,366.106 193.779,366.106 194.531 M329.991 199.088 C 334.036 201.589,335.006 205.417,334.009 214.940 C 331.422 239.644,320.747 263.208,304.539 279.989 C 299.825 284.869,296.601 285.832,292.299 283.644 C 290.285 282.619,240.987 217.532,240.721 215.545 C 240.299 212.401,243.217 208.157,246.168 207.622 C 252.298 206.512,323.712 197.714,325.704 197.824 C 327.580 197.928,328.601 198.229,329.991 199.088 M366.106 214.063 C 366.106 214.814,366.187 215.122,366.285 214.746 C 366.383 214.370,366.383 213.755,366.285 213.379 C 366.187 213.003,366.106 213.311,366.106 214.063 M204.724 214.190 C 206.927 215.354,208.628 217.992,208.706 220.365 C 208.791 222.944,178.355 295.493,176.225 297.790 C 172.517 301.787,168.874 301.661,162.230 297.305 C 141.063 283.428,125.580 263.357,117.547 239.380 C 114.618 230.636,115.332 226.759,120.346 224.202 C 122.215 223.248,120.438 223.503,163.672 217.980 C 204.471 212.769,202.394 212.960,204.724 214.190 M229.857 224.615 C 231.399 225.380,278.064 286.029,280.226 290.079 C 284.026 297.196,278.557 302.561,261.145 308.799 C 241.612 315.796,220.207 317.300,200.126 313.087 C 191.785 311.337,188.608 308.356,189.147 302.786 C 189.307 301.141,218.770 230.043,220.642 226.787 C 222.165 224.138,226.726 223.063,229.857 224.615 M220.215 347.556 C 221.772 347.630,224.321 347.630,225.879 347.556 C 227.437 347.482,226.162 347.421,223.047 347.421 C 219.932 347.421,218.657 347.482,220.215 347.556 " stroke="none" fill="#fff8bc" fill-rule="evenodd"></path></g></svg>